{
  "accessors": [
    {
      "bufferView": 2,
      "componentType": 5126,
      "count": 313,
      "max": [
        9.61204719543457,
        8.109648704528809,
        2.768639087677002
      ],
      "min": [
        2.0749900341033936,
        0.8763790130615234,
        0.0
      ],
      "type": "VEC3"
    },
    {
      "bufferView": 2,
      "byteOffset": 3756,
      "componentType": 5126,
      "count": 313,
      "max": [
        0.6270037293434143,
        0.3314865231513977,
        -0.5246303677558899
      ],
      "min": [
        -0.6270037293434143,
        -0.8508358001708984,
        -0.9999372959136963
      ],
      "type": "VEC3"
    },
    {
      "bufferView": 1,
      "componentType": 5126,
      "count": 313,
      "max": [
        1.7523690303278272e-06,
        1.0
      ],
      "min": [
        -0.9999977946281433,
        7.495135832868982e-06
      ],
      "type": "VEC2"
    },
    {
      "bufferView": 1,
      "byteOffset": 2504,
      "componentType": 5126,
      "count": 313,
      "max": [
        1.7523690303278272e-06,
        1.0
      ],
      "min": [
        -0.9999977946281433,
        7.495135832868982e-06
      ],
      "type": "VEC2"
    },
    {
      "bufferView": 0,
      "componentType": 5125,
      "count": 1173,
      "type": "SCALAR"
    },
    {
      "bufferView": 2,
      "byteOffset": 7512,
      "componentType": 5126,
      "count": 314,
      "max": [
        4.604671955108643,
        8.109599113464355,
        11.208390235900879
      ],
      "min": [
        0.0,
        0.876333475112915,
        4.468564987182617
      ],
      "type": "VEC3"
    },
    {
      "bufferView": 2,
      "byteOffset": 11280,
      "componentType": 5126,
      "count": 314,
      "max": [
        -0.27364253997802734,
        0.3315330147743225,
        0.9200854897499084
      ],
      "min": [
        -0.999779224395752,
        -0.8508263230323792,
        -0.18613280355930328
      ],
      "type": "VEC3"
    },
    {
      "bufferView": 1,
      "byteOffset": 5008,
      "componentType": 5126,
      "count": 314,
      "max": [
        1.7523690303278272e-06,
        1.0
      ],
      "min": [
        -0.9999982118606567,
        4.531305876298575e-06
      ],
      "type": "VEC2"
    },
    {
      "bufferView": 1,
      "byteOffset": 7520,
      "componentType": 5126,
      "count": 314,
      "max": [
        1.7523690303278272e-06,
        1.0
      ],
      "min": [
        -0.9999982118606567,
        4.531305876298575e-06
      ],
      "type": "VEC2"
    },
    {
      "bufferView": 0,
      "byteOffset": 4692,
      "componentType": 5125,
      "count": 1176,
      "type": "SCALAR"
    },
    {
      "bufferView": 2,
      "byteOffset": 15048,
      "componentType": 5126,
      "count": 313,
      "max": [
        9.612075805664063,
        11.325090408325195,
        9.479578971862793
      ],
      "min": [
        2.0749619007110596,
        10.129650115966797,
        1.8894050121307373
      ],
      "type": "VEC3"
    },
    {
      "bufferView": 2,
      "byteOffset": 18804,
      "componentType": 5126,
      "count": 313,
      "max": [
        0.6270106434822083,
        0.9464821219444275,
        0.6270396709442139
      ],
      "min": [
        -0.6269959211349487,
        0.7778056263923645,
        -0.6270058751106262
      ],
      "type": "VEC3"
    },
    {
      "bufferView": 1,
      "byteOffset": 10032,
      "componentType": 5126,
      "count": 313,
      "max": [
        6.692842816846678e-06,
        1.0
      ],
      "min": [
        -1.0000020265579224,
        3.430121978453826e-06
      ],
      "type": "VEC2"
    },
    {
      "bufferView": 1,
      "byteOffset": 12536,
      "componentType": 5126,
      "count": 313,
      "max": [
        6.692842816846678e-06,
        1.0
      ],
      "min": [
        -1.0000020265579224,
        3.430121978453826e-06
      ],
      "type": "VEC2"
    },
    {
      "bufferView": 0,
      "byteOffset": 9396,
      "componentType": 5125,
      "count": 1173,
      "type": "SCALAR"
    },
    {
      "bufferView": 2,
      "byteOffset": 22560,
      "componentType": 5126,
      "count": 315,
      "max": [
        11.687009811401367,
        8.109647750854492,
        11.208399772644043
      ],
      "min": [
        7.082310199737549,
        0.876333475112915,
        4.468533992767334
      ],
      "type": "VEC3"
    },
    {
      "bufferView": 2,
      "byteOffset": 26340,
      "componentType": 5126,
      "count": 315,
      "max": [
        0.999779224395752,
        0.3314880132675171,
        0.9200854897499084
      ],
      "min": [
        0.27360400557518005,
        -0.8508304953575134,
        -0.18614859879016876
      ],
      "type": "VEC3"
    },
    {
      "bufferView": 1,
      "byteOffset": 15040,
      "componentType": 5126,
      "count": 315,
      "max": [
        1.7523690303278272e-06,
        1.0
      ],
      "min": [
        -0.999998927116394,
        4.531305876298575e-06
      ],
      "type": "VEC2"
    },
    {
      "bufferView": 1,
      "byteOffset": 17560,
      "componentType": 5126,
      "count": 315,
      "max": [
        1.7523690303278272e-06,
        1.0
      ],
      "min": [
        -0.999998927116394,
        4.531305876298575e-06
      ],
      "type": "VEC2"
    },
    {
      "bufferView": 0,
      "byteOffset": 14088,
      "componentType": 5125,
      "count": 1179,
      "type": "SCALAR"
    },
    {
      "bufferView": 2,
      "byteOffset": 30120,
      "componentType": 5126,
      "count": 1847,
      "max": [
        11.655309677124023,
        10.367030143737793,
        11.647350311279297
      ],
      "min": [
        0.031681470572948456,
        0.0,
        0.45700791478157043
      ],
      "type": "VEC3"
    },
    {
      "bufferView": 2,
      "byteOffset": 52284,
      "componentType": 5126,
      "count": 1847,
      "max": [
        0.9945189952850342,
        0.7793323993682861,
        1.0
      ],
      "min": [
        -0.9945147037506104,
        -1.0,
        -0.9420424103736877
      ],
      "type": "VEC3"
    },
    {
      "bufferView": 1,
      "byteOffset": 20080,
      "componentType": 5126,
      "count": 1847,
      "max": [
        0.9497256875038147,
        1.106058955192566
      ],
      "min": [
        0.059700220823287964,
        0.3961713910102844
      ],
      "type": "VEC2"
    },
    {
      "bufferView": 0,
      "byteOffset": 18804,
      "componentType": 5125,
      "count": 7392,
      "type": "SCALAR"
    },
    {
      "bufferView": 2,
      "byteOffset": 74448,
      "componentType": 5126,
      "count": 725,
      "max": [
        11.443699836730957,
        11.663040161132813,
        10.15977954864502
      ],
      "min": [
        0.24331359565258026,
        2.1799800395965576,
        0.0014547189930453897
      ],
      "type": "VEC3"
    },
    {
      "bufferView": 2,
      "byteOffset": 83148,
      "componentType": 5126,
      "count": 725,
      "max": [
        0.9591431021690369,
        1.0,
        0.7307509183883667
      ],
      "min": [
        -0.9591432213783264,
        -0.619798481464386,
        -0.9999372959136963
      ],
      "type": "VEC3"
    },
    {
      "bufferView": 0,
      "byteOffset": 48372,
      "componentType": 5125,
      "count": 3024,
      "type": "SCALAR"
    },
    {
      "bufferView": 2,
      "byteOffset": 91848,
      "componentType": 5126,
      "count": 7,
      "max": [
        5.844078063964844,
        8.482975006103516,
        8.490336418151855
      ],
      "min": [
        1.2318400144577026,
        0.07469276338815689,
        5.689055919647217
      ],
      "type": "VEC3"
    },
    {
      "bufferView": 0,
      "byteOffset": 60468,
      "componentType": 5125,
      "count": 10,
      "type": "SCALAR"
    }
  ],
  "asset": {
    "extras": {
      "author": "farhad.Guli (https://sketchfab.com/farhad.Guli)",
      "license": "CC-BY-4.0 (http://creativecommons.org/licenses/by/4.0/)",
      "source": "https://sketchfab.com/3d-models/fifa-world-cup-ball-45b805a34787410296ac766a2de3aec4",
      "title": "fifa world cup ball"
    },
    "generator": "Sketchfab-12.66.0",
    "version": "2.0"
  },
  "bufferViews": [
    {
      "buffer": 0,
      "byteLength": 60508,
      "name": "floatBufferViews",
      "target": 34963
    },
    {
      "buffer": 0,
      "byteLength": 34856,
      "byteOffset": 60508,
      "byteStride": 8,
      "name": "floatBufferViews",
      "target": 34962
    },
    {
      "buffer": 0,
      "byteLength": 91932,
      "byteOffset": 95364,
      "byteStride": 12,
      "name": "floatBufferViews",
      "target": 34962
    }
  ],
  "buffers": [
    {
      "byteLength": 187296,
      "uri": "scene.bin"
    }
  ],
  "images": [
    {
      "uri": "textures/jabulani_2_baseColor.png"
    },
    {
      "uri": "textures/jabulani1_baseColor.png"
    }
  ],
  "materials": [
    {
      "name": "jabulani_2",
      "pbrMetallicRoughness": {
        "baseColorTexture": {
          "index": 0
        },
        "metallicFactor": 0.0,
        "roughnessFactor": 0.6
      }
    },
    {
      "name": "material",
      "pbrMetallicRoughness": {
        "baseColorFactor": [
          0.890196,
          0.882353,
          0.870588,
          1.0
        ],
        "metallicFactor": 0.0,
        "roughnessFactor": 0.6
      }
    },
    {
      "alphaMode": "BLEND",
      "name": "jabulani1",
      "pbrMetallicRoughness": {
        "baseColorTexture": {
          "index": 1
        },
        "metallicFactor": 0.0,
        "roughnessFactor": 0.6
      }
    },
    {
      "name": "edge_color808080255",
      "pbrMetallicRoughness": {
        "metallicFactor": 0.0,
        "roughnessFactor": 0.6
      }
    }
  ],
  "meshes": [
    {
      "name": "Material2",
      "primitives": [
        {
          "attributes": {
            "NORMAL": 1,
            "POSITION": 0,
            "TEXCOORD_0": 2,
            "TEXCOORD_1": 3
          },
          "indices": 4,
          "material": 2,
          "mode": 4
        }
      ]
    },
    {
      "name": "Material2",
      "primitives": [
        {
          "attributes": {
            "NORMAL": 6,
            "POSITION": 5,
            "TEXCOORD_0": 7,
            "TEXCOORD_1": 8
          },
          "indices": 9,
          "material": 2,
          "mode": 4
        }
      ]
    },
    {
      "name": "Material2",
      "primitives": [
        {
          "attributes": {
            "NORMAL": 11,
            "POSITION": 10,
            "TEXCOORD_0": 12,
            "TEXCOORD_1": 13
          },
          "indices": 14,
          "material": 2,
          "mode": 4
        }
      ]
    },
    {
      "name": "Material2",
      "primitives": [
        {
          "attributes": {
            "NORMAL": 16,
            "POSITION": 15,
            "TEXCOORD_0": 17,
            "TEXCOORD_1": 18
          },
          "indices": 19,
          "material": 2,
          "mode": 4
        }
      ]
    },
    {
      "name": "Material2",
      "primitives": [
        {
          "attributes": {
            "NORMAL": 21,
            "POSITION": 20,
            "TEXCOORD_0": 22
          },
          "indices": 23,
          "material": 0,
          "mode": 4
        }
      ]
    },
    {
      "name": "Material2",
      "primitives": [
        {
          "attributes": {
            "NORMAL": 25,
            "POSITION": 24
          },
          "indices": 26,
          "material": 1,
          "mode": 4
        }
      ]
    },
    {
      "name": "Material2",
      "primitives": [
        {
          "attributes": {
            "POSITION": 27
          },
          "indices": 28,
          "material": 3,
          "mode": 1
        }
      ]
    }
  ],
  "nodes": [
    {
      "children": [
        1
      ],
      "matrix": [
        0.16647030413150787,
        0.0,
        0.0,
        0.0,
        0.0,
        3.696383291263047e-17,
        -0.16647030413150787,
        0.0,
        0.0,
        0.16647030413150787,
        3.696383291263047e-17,
        0.0,
        0.0,
        0.0,
        0.0,
        1.0
      ],
      "name": "Sketchfab_model"
    },
    {
      "children": [
        2
      ],
      "name": "Collada visual scene group"
    },
    {
      "children": [
        3,
        5
      ],
      "name": "SketchUp"
    },
    {
      "children": [
        4
      ],
      "matrix": [
        0.02748068,
        -0.9996223,
        1.084202e-19,
        0.0,
        0.02584146,
        0.0007104093,
        0.9996658,
        0.0,
        -0.9992883,
        -0.0274715,
        0.02585123,
        0.0,
        65.99367,
        -4.08817,
        5.724144,
        1.0
      ],
      "name": "skp_camera_Last_Saved_SketchUp_View"
    },
    {
      "name": "ID1"
    },
    {
      "children": [
        6
      ],
      "name": "instance_0"
    },
    {
      "children": [
        7
      ],
      "name": "Fifa_World_Cup_Match_Ball_2010_Africa"
    },
    {
      "children": [
        8
      ],
      "matrix": [
        1.0,
        0.0,
        0.0,
        0.0,
        0.0,
        1.0,
        0.0,
        0.0,
        0.0,
        0.0,
        1.0,
        0.0,
        87.34522,
        -10.86014,
        -1.816896,
        1.0
      ],
      "name": "instance_1"
    },
    {
      "children": [
        9,
        10,
        11,
        12,
        13,
        14,
        15
      ],
      "name": "Component_1"
    },
    {
      "mesh": 0,
      "name": "Material2"
    },
    {
      "mesh": 1,
      "name": "Material2"
    },
    {
      "mesh": 2,
      "name": "Material2"
    },
    {
      "mesh": 3,
      "name": "Material2"
    },
    {
      "mesh": 4,
      "name": "Material2"
    },
    {
      "mesh": 5,
      "name": "Material2"
    },
    {
      "mesh": 6,
      "name": "Material2"
    }
  ],
  "samplers": [
    {
      "magFilter": 9729,
      "minFilter": 9987,
      "wrapS": 10497,
      "wrapT": 10497
    }
  ],
  "scene": 0,
  "scenes": [
    {
      "name": "Sketchfab_Scene",
      "nodes": [
        0
      ]
    }
  ],
  "textures": [
    {
      "sampler": 0,
      "source": 0
    },
    {
      "sampler": 0,
      "source": 1
    }
  ]
}
