{
  "accessors": [
    {
      "bufferView": 2,
      "componentType": 5126,
      "count": 1764,
      "max": [
        11.341593742370605,
        8.543667793273926,
        0.2941010296344757
      ],
      "min": [
        -11.341593742370605,
        -0.11180028319358826,
        -4.300657272338867
      ],
      "type": "VEC3"
    },
    {
      "bufferView": 2,
      "byteOffset": 21168,
      "componentType": 5126,
      "count": 1764,
      "max": [
        1.0,
        1.0,
        1.0
      ],
      "min": [
        -1.0,
        -1.0,
        -1.0
      ],
      "type": "VEC3"
    },
    {
      "bufferView": 1,
      "componentType": 5126,
      "count": 1764,
      "max": [
        1.0000001192092896,
        1.0000001192092896
      ],
      "min": [
        0.0,
        0.0
      ],
      "type": "VEC2"
    },
    {
      "bufferView": 0,
      "componentType": 5125,
      "count": 7992,
      "type": "SCALAR"
    },
    {
      "bufferView": 2,
      "byteOffset": 42336,
      "componentType": 5126,
      "count": 9148,
      "max": [
        11.064202308654785,
        8.192774772644043,
        0.018008217215538025
      ],
      "min": [
        -11.064202308654785,
        0.05994122847914696,
        -4.196373462677002
      ],
      "type": "VEC3"
    },
    {
      "bufferView": 2,
      "byteOffset": 152112,
      "componentType": 5126,
      "count": 9148,
      "max": [
        1.0,
        1.0,
        0.1958460807800293
      ],
      "min": [
        -1.0,
        -0.1877535581588745,
        -0.9999977350234985
      ],
      "type": "VEC3"
    },
    {
      "bufferView": 1,
      "byteOffset": 14112,
      "componentType": 5126,
      "count": 9148,
      "max": [
        0.8877347111701965,
        0.7516394853591919
      ],
      "min": [
        0.37432271242141724,
        -0.0015406068414449692
      ],
      "type": "VEC2"
    },
    {
      "bufferView": 0,
      "byteOffset": 31968,
      "componentType": 5125,
      "count": 36528,
      "type": "SCALAR"
    },
    {
      "bufferView": 2,
      "byteOffset": 261888,
      "componentType": 5126,
      "count": 4360,
      "max": [
        0.9383224844932556,
        0.8866087198257446,
        0.9418520331382751
      ],
      "min": [
        -0.9377783536911011,
        -0.8862999677658081,
        -0.9367756247520447
      ],
      "type": "VEC3"
    },
    {
      "bufferView": 2,
      "byteOffset": 314208,
      "componentType": 5126,
      "count": 4360,
      "max": [
        0.9992354512214661,
        0.9859724640846252,
        0.9977637529373169
      ],
      "min": [
        -0.9992535710334778,
        -0.9859585165977478,
        -0.9977669715881348
      ],
      "type": "VEC3"
    },
    {
      "bufferView": 1,
      "byteOffset": 87296,
      "componentType": 5126,
      "count": 4360,
      "max": [
        0.9823622703552246,
        0.4418320655822754
      ],
      "min": [
        0.01763790100812912,
        0.030549941584467888
      ],
      "type": "VEC2"
    },
    {
      "bufferView": 0,
      "byteOffset": 178080,
      "componentType": 5125,
      "count": 21600,
      "type": "SCALAR"
    },
    {
      "bufferView": 2,
      "byteOffset": 366528,
      "componentType": 5126,
      "count": 2098,
      "max": [
        0.9323639273643494,
        0.937851071357727,
        0.9323933720588684
      ],
      "min": [
        -0.9317944645881653,
        -0.9373536705970764,
        -0.9274143576622009
      ],
      "type": "VEC3"
    },
    {
      "bufferView": 2,
      "byteOffset": 391704,
      "componentType": 5126,
      "count": 2098,
      "max": [
        0.9930664896965027,
        0.998253345489502,
        0.9993188977241516
      ],
      "min": [
        -0.9930795431137085,
        -0.9982530474662781,
        -0.9988572597503662
      ],
      "type": "VEC3"
    },
    {
      "bufferView": 1,
      "byteOffset": 122176,
      "componentType": 5126,
      "count": 2098,
      "max": [
        0.9823620319366455,
        0.4418320655822754
      ],
      "min": [
        0.017638133838772774,
        0.030549941584467888
      ],
      "type": "VEC2"
    },
    {
      "bufferView": 0,
      "byteOffset": 264480,
      "componentType": 5125,
      "count": 9936,
      "type": "SCALAR"
    }
  ],
  "asset": {
    "extras": {
      "author": "Akinremi (https://sketchfab.com/Akinremi)",
      "license": "CC-BY-4.0 (http://creativecommons.org/licenses/by/4.0/)",
      "source": "https://sketchfab.com/3d-models/soccer-goal-aa647b73cedb44e18797b9227f341b11",
      "title": "Soccer Goal"
    },
    "generator": "Sketchfab-15.53.0",
    "version": "2.0"
  },
  "bufferViews": [
    {
      "buffer": 0,
      "byteLength": 304224,
      "name": "floatBufferViews",
      "target": 34963
    },
    {
      "buffer": 0,
      "byteLength": 138960,
      "byteOffset": 304224,
      "byteStride": 8,
      "name": "floatBufferViews",
      "target": 34962
    },
    {
      "buffer": 0,
      "byteLength": 416880,
      "byteOffset": 443184,
      "byteStride": 12,
      "name": "floatBufferViews",
      "target": 34962
    }
  ],
  "buffers": [
    {
      "byteLength": 860064,
      "uri": "scene.bin"
    }
  ],
  "materials": [
    {
      "doubleSided": true,
      "name": "Material.001",
      "pbrMetallicRoughness": {
        "baseColorFactor": [
          0.975829,
          0.975829,
          0.975829,
          1.0
        ],
        "metallicFactor": 0.0,
        "roughnessFactor": 0.0
      }
    },
    {
      "doubleSided": true,
      "name": "Material.002",
      "pbrMetallicRoughness": {
        "baseColorFactor": [
          0.0392041,
          0.311101,
          0.0256458,
          1.0
        ],
        "metallicFactor": 0.0,
        "roughnessFactor": 0.5
      }
    },
    {
      "doubleSided": true,
      "name": "Material.003",
      "pbrMetallicRoughness": {
        "baseColorFactor": [
          0.8,
          0.8,
          0.8,
          1.0
        ],
        "metallicFactor": 0.0,
        "roughnessFactor": 0.5
      }
    },
    {
      "doubleSided": true,
      "name": "Material.004",
      "pbrMetallicRoughness": {
        "baseColorFactor": [
          0.00124125,
          0.00124125,
          0.00124125,
          1.0
        ],
        "metallicFactor": 0.0,
        "roughnessFactor": 0.5
      }
    }
  ],
  "meshes": [
    {
      "name": "Object_0",
      "primitives": [
        {
          "attributes": {
            "NORMAL": 1,
            "POSITION": 0,
            "TEXCOORD_0": 2
          },
          "indices": 3,
          "material": 0,
          "mode": 4
        }
      ]
    },
    {
      "name": "Object_1",
      "primitives": [
        {
          "attributes": {
            "NORMAL": 5,
            "POSITION": 4,
            "TEXCOORD_0": 6
          },
          "indices": 7,
          "material": 1,
          "mode": 4
        }
      ]
    },
    {
      "name": "Object_2",
      "primitives": [
        {
          "attributes": {
            "NORMAL": 9,
            "POSITION": 8,
            "TEXCOORD_0": 10
          },
          "indices": 11,
          "material": 2,
          "mode": 4
        }
      ]
    },
    {
      "name": "Object_3",
      "primitives": [
        {
          "attributes": {
            "NORMAL": 13,
            "POSITION": 12,
            "TEXCOORD_0": 14
          },
          "indices": 15,
          "material": 3,
          "mode": 4
        }
      ]
    }
  ],
  "nodes": [
    {
      "children": [
        1
      ],
      "matrix": [
        1.0,
        0.0,
        0.0,
        0.0,
        0.0,
        2.220446049250313e-16,
        -1.0,
        0.0,
        0.0,
        1.0,
        2.220446049250313e-16,
        0.0,
        0.0,
        0.0,
        0.0,
        1.0
      ],
      "name": "Sketchfab_model"
    },
    {
      "children": [
        2
      ],
      "name": "root"
    },
    {
      "children": [
        3,
        6
      ],
      "matrix": [
        1.0,
        0.0,
        0.0,
        0.0,
        0.0,
        2.220446049250313e-16,
        1.0,
        0.0,
        0.0,
        -1.0,
        2.220446049250313e-16,
        0.0,
        0.0,
        0.0,
        0.0,
        1.0
      ],
      "name": "GLTF_SceneRootNode"
    },
    {
      "children": [
        4,
        5
      ],
      "matrix": [
        0.3140000104904175,
        0.0,
        0.0,
        0.0,
        0.0,
        0.3140000104904175,
        0.0,
        0.0,
        0.0,
        0.0,
        0.3140000104904175,
        0.0,
        0.0,
        0.0,
        0.0,
        1.0
      ],
      "name": "Circle_1"
    },
    {
      "mesh": 0,
      "name": "Object_4"
    },
    {
      "mesh": 1,
      "name": "Object_5"
    },
    {
      "children": [
        7,
        8
      ],
      "matrix": [
        0.5291370153427124,
        0.0,
        0.0,
        0.0,
        0.0,
        0.5291370153427124,
        0.0,
        0.0,
        0.0,
        0.0,
        0.5291370153427124,
        0.0,
        0.0,
        0.0,
        0.0,
        1.0
      ],
      "name": "Icosphere_2"
    },
    {
      "mesh": 2,
      "name": "Object_7"
    },
    {
      "mesh": 3,
      "name": "Object_8"
    }
  ],
  "scene": 0,
  "scenes": [
    {
      "name": "Sketchfab_Scene",
      "nodes": [
        0
      ]
    }
  ]
}
