{
  "accessors": [
    {
      "bufferView": 2,
      "componentType": 5126,
      "count": 1068,
      "max": [
        62.79923629760742,
        42.81500244140625,
        54.814998626708984
      ],
      "min": [
        -62.79923629760742,
        -42.81500244140625,
        -2.815000534057617
      ],
      "type": "VEC3"
    },
    {
      "bufferView": 2,
      "byteOffset": 12816,
      "componentType": 5126,
      "count": 1068,
      "max": [
        1.0,
        1.0,
        1.0
      ],
      "min": [
        -1.0,
        -1.0,
        -1.0
      ],
      "type": "VEC3"
    },
    {
      "bufferView": 3,
      "componentType": 5126,
      "count": 1068,
      "max": [
        1.0,
        0.999954342842102,
        1.0,
        1.0
      ],
      "min": [
        -1.0,
        -0.999991238117218,
        -1.0,
        -1.0
      ],
      "type": "VEC4"
    },
    {
      "bufferView": 1,
      "componentType": 5126,
      "count": 1068,
      "max": [
        0.9963018298149109,
        0.9767297506332397
      ],
      "min": [
        0.0006304383277893066,
        0.002029821276664734
      ],
      "type": "VEC2"
    },
    {
      "bufferView": 0,
      "componentType": 5125,
      "count": 3600,
      "type": "SCALAR"
    },
    {
      "bufferView": 2,
      "byteOffset": 25632,
      "componentType": 5126,
      "count": 58,
      "max": [
        58.46905517578125,
        24.964740753173828,
        -1.5227928161621094
      ],
      "min": [
        -58.46904373168945,
        -26.24274444580078,
        -79.96454620361328
      ],
      "type": "VEC3"
    },
    {
      "bufferView": 2,
      "byteOffset": 26328,
      "componentType": 5126,
      "count": 58,
      "max": [
        1.0,
        0.9870038628578186,
        0.7736461758613586
      ],
      "min": [
        -1.0,
        -2.975277084260597e-06,
        -0.002463956829160452
      ],
      "type": "VEC3"
    },
    {
      "bufferView": 3,
      "byteOffset": 17088,
      "componentType": 5126,
      "count": 58,
      "max": [
        0.99989914894104,
        0.8841001987457275,
        0.6870612502098083,
        1.0
      ],
      "min": [
        -0.0011923664715141058,
        -0.8790366053581238,
        -0.6250165700912476,
        1.0
      ],
      "type": "VEC4"
    },
    {
      "bufferView": 1,
      "byteOffset": 8544,
      "componentType": 5126,
      "count": 58,
      "max": [
        0.5678175091743469,
        0.993322491645813
      ],
      "min": [
        0.005241096019744873,
        0.6886175274848938
      ],
      "type": "VEC2"
    },
    {
      "bufferView": 1,
      "byteOffset": 9008,
      "componentType": 5126,
      "count": 58,
      "max": [
        0.5678175091743469,
        0.993322491645813
      ],
      "min": [
        0.005241096019744873,
        0.6886175274848938
      ],
      "type": "VEC2"
    },
    {
      "bufferView": 1,
      "byteOffset": 9472,
      "componentType": 5126,
      "count": 58,
      "max": [
        0.5678175091743469,
        0.993322491645813
      ],
      "min": [
        0.005241096019744873,
        0.6886175274848938
      ],
      "type": "VEC2"
    },
    {
      "bufferView": 0,
      "byteOffset": 14400,
      "componentType": 5125,
      "count": 204,
      "type": "SCALAR"
    },
    {
      "bufferView": 2,
      "byteOffset": 27024,
      "componentType": 5126,
      "count": 391,
      "max": [
        21.661251068115234,
        21.661251068115234,
        21.661251068115234
      ],
      "min": [
        -21.661251068115234,
        -21.661251068115234,
        -21.661251068115234
      ],
      "type": "VEC3"
    },
    {
      "bufferView": 2,
      "byteOffset": 31716,
      "componentType": 5126,
      "count": 391,
      "max": [
        1.0,
        1.0,
        1.0
      ],
      "min": [
        -1.0,
        -1.0,
        -1.0
      ],
      "type": "VEC3"
    },
    {
      "bufferView": 3,
      "byteOffset": 18016,
      "componentType": 5126,
      "count": 391,
      "max": [
        1.0,
        1.0,
        1.0,
        1.0
      ],
      "min": [
        -0.8743084073066711,
        -0.6394101977348328,
        -0.8743085265159607,
        -1.0
      ],
      "type": "VEC4"
    },
    {
      "bufferView": 1,
      "byteOffset": 9936,
      "componentType": 5126,
      "count": 391,
      "max": [
        0.9844684600830078,
        0.9798480272293091
      ],
      "min": [
        0.01353779248893261,
        0.008917432278394699
      ],
      "type": "VEC2"
    },
    {
      "bufferView": 1,
      "byteOffset": 13064,
      "componentType": 5126,
      "count": 391,
      "max": [
        0.9844684600830078,
        0.9798480272293091
      ],
      "min": [
        0.01353779248893261,
        0.008917432278394699
      ],
      "type": "VEC2"
    },
    {
      "bufferView": 0,
      "byteOffset": 15216,
      "componentType": 5125,
      "count": 1080,
      "type": "SCALAR"
    }
  ],
  "asset": {
    "extras": {
      "author": "Mc1800p (https://sketchfab.com/Mc1800p)",
      "license": "CC-BY-4.0 (http://creativecommons.org/licenses/by/4.0/)",
      "source": "https://sketchfab.com/3d-models/football-set-e9ecf5e168c0425181f4e917c43e75d3",
      "title": "Football set"
    },
    "generator": "Sketchfab-12.64.0",
    "version": "2.0"
  },
  "bufferViews": [
    {
      "buffer": 0,
      "byteLength": 19536,
      "name": "floatBufferViews",
      "target": 34963
    },
    {
      "buffer": 0,
      "byteLength": 16192,
      "byteOffset": 19536,
      "byteStride": 8,
      "name": "floatBufferViews",
      "target": 34962
    },
    {
      "buffer": 0,
      "byteLength": 36408,
      "byteOffset": 35728,
      "byteStride": 12,
      "name": "floatBufferViews",
      "target": 34962
    },
    {
      "buffer": 0,
      "byteLength": 24272,
      "byteOffset": 72136,
      "byteStride": 16,
      "name": "floatBufferViews",
      "target": 34962
    }
  ],
  "buffers": [
    {
      "byteLength": 96408,
      "uri": "scene.bin"
    }
  ],
  "images": [
    {
      "uri": "textures/Post_baseColor.png"
    },
    {
      "uri": "textures/Post_metallicRoughness.png"
    },
    {
      "uri": "textures/Post_normal.png"
    },
    {
      "uri": "textures/material_baseColor.png"
    },
    {
      "uri": "textures/material_metallicRoughness.png"
    },
    {
      "uri": "textures/material_normal.png"
    },
    {
      "uri": "textures/Ball_baseColor.png"
    },
    {
      "uri": "textures/Ball_metallicRoughness.png"
    },
    {
      "uri": "textures/Ball_normal.png"
    }
  ],
  "materials": [
    {
      "doubleSided": true,
      "name": "Post",
      "normalTexture": {
        "index": 2
      },
      "occlusionTexture": {
        "index": 1
      },
      "pbrMetallicRoughness": {
        "baseColorTexture": {
          "index": 0
        },
        "metallicRoughnessTexture": {
          "index": 1
        },
        "roughnessFactor": 0.49828506097560976
      }
    },
    {
      "alphaMode": "BLEND",
      "doubleSided": true,
      "name": "material",
      "normalTexture": {
        "index": 5
      },
      "occlusionTexture": {
        "index": 4
      },
      "pbrMetallicRoughness": {
        "baseColorTexture": {
          "index": 3
        },
        "metallicRoughnessTexture": {
          "index": 4
        },
        "roughnessFactor": 0.6
      }
    },
    {
      "doubleSided": true,
      "name": "Ball",
      "normalTexture": {
        "index": 8
      },
      "pbrMetallicRoughness": {
        "baseColorTexture": {
          "index": 6
        },
        "metallicRoughnessTexture": {
          "index": 7
        },
        "roughnessFactor": 0.6
      }
    }
  ],
  "meshes": [
    {
      "name": "post_low_Post_0",
      "primitives": [
        {
          "attributes": {
            "NORMAL": 1,
            "POSITION": 0,
            "TANGENT": 2,
            "TEXCOORD_0": 3
          },
          "indices": 4,
          "material": 0,
          "mode": 4
        }
      ]
    },
    {
      "name": "net_low_Net_0",
      "primitives": [
        {
          "attributes": {
            "NORMAL": 6,
            "POSITION": 5,
            "TANGENT": 7,
            "TEXCOORD_0": 8,
            "TEXCOORD_1": 9,
            "TEXCOORD_2": 10
          },
          "indices": 11,
          "material": 1,
          "mode": 4
        }
      ]
    },
    {
      "name": "soccerball_low_Ball_0",
      "primitives": [
        {
          "attributes": {
            "NORMAL": 13,
            "POSITION": 12,
            "TANGENT": 14,
            "TEXCOORD_0": 15,
            "TEXCOORD_1": 16
          },
          "indices": 17,
          "material": 2,
          "mode": 4
        }
      ]
    }
  ],
  "nodes": [
    {
      "children": [
        1
      ],
      "matrix": [
        0.00890305358916521,
        0.0,
        0.0,
        0.0,
        0.0,
        1.9768750168325712e-18,
        -0.00890305358916521,
        0.0,
        0.0,
        0.00890305358916521,
        1.9768750168325712e-18,
        0.0,
        0.0,
        0.0,
        0.0,
        1.0
      ],
      "name": "Sketchfab_model"
    },
    {
      "children": [
        2
      ],
      "matrix": [
        1.0,
        0.0,
        0.0,
        0.0,
        0.0,
        0.0,
        1.0,
        0.0,
        0.0,
        -1.0,
        0.0,
        0.0,
        0.0,
        0.0,
        0.0,
        1.0
      ],
      "name": "df745ea1044d40b6b59a87bd5f1f6a2f.fbx"
    },
    {
      "children": [
        3,
        6,
        9
      ],
      "name": "RootNode"
    },
    {
      "children": [
        4
      ],
      "matrix": [
        1.0,
        0.0,
        0.0,
        0.0,
        0.0,
        0.9999999999999867,
        1.6292068494294582e-07,
        0.0,
        0.0,
        -1.6292068494294582e-07,
        0.9999999999999867,
        0.0,
        0.0,
        0.0,
        0.0,
        1.0
      ],
      "name": "post_low"
    },
    {
      "children": [
        5
      ],
      "matrix": [
        1.0,
        0.0,
        -0.0,
        0.0,
        0.0,
        1.0,
        0.0,
        0.0,
        0.0,
        0.0,
        1.0,
        0.0,
        0.0,
        -4.212405144699005e-07,
        -25.999998092651367,
        1.0
      ],
      "name": "Object_4"
    },
    {
      "mesh": 0,
      "name": "post_low_Post_0"
    },
    {
      "children": [
        7
      ],
      "matrix": [
        1.0,
        0.0,
        0.0,
        0.0,
        0.0,
        2.220446049250313e-16,
        -1.0,
        0.0,
        0.0,
        1.0,
        2.220446049250313e-16,
        0.0,
        0.0,
        0.0,
        0.0,
        1.0
      ],
      "name": "net_low"
    },
    {
      "children": [
        8
      ],
      "matrix": [
        1.0,
        0.0,
        -0.0,
        0.0,
        0.0,
        1.0,
        0.0,
        0.0,
        0.0,
        0.0,
        1.0,
        0.0,
        -5.7220458984375e-06,
        0.6390018463134766,
        40.74366760253906,
        1.0
      ],
      "name": "Object_7"
    },
    {
      "mesh": 1,
      "name": "net_low_Net_0"
    },
    {
      "children": [
        10
      ],
      "matrix": [
        1.0,
        0.0,
        0.0,
        0.0,
        0.0,
        0.9999999999999867,
        1.6292068494294582e-07,
        0.0,
        0.0,
        -1.6292068494294582e-07,
        0.9999999999999867,
        0.0,
        -16.77447509765625,
        -24.09210777282715,
        44.29490280151367,
        1.0
      ],
      "name": "soccerball_low"
    },
    {
      "mesh": 2,
      "name": "soccerball_low_Ball_0"
    }
  ],
  "samplers": [
    {
      "magFilter": 9729,
      "minFilter": 9987,
      "wrapS": 10497,
      "wrapT": 10497
    }
  ],
  "scene": 0,
  "scenes": [
    {
      "name": "Sketchfab_Scene",
      "nodes": [
        0
      ]
    }
  ],
  "textures": [
    {
      "sampler": 0,
      "source": 0
    },
    {
      "sampler": 0,
      "source": 1
    },
    {
      "sampler": 0,
      "source": 2
    },
    {
      "sampler": 0,
      "source": 3
    },
    {
      "sampler": 0,
      "source": 4
    },
    {
      "sampler": 0,
      "source": 5
    },
    {
      "sampler": 0,
      "source": 6
    },
    {
      "sampler": 0,
      "source": 7
    },
    {
      "sampler": 0,
      "source": 8
    }
  ]
}
